<svg version="1.2" xmlns="http://www.w3.org/2000/svg" viewBox="0 0 512 512" width="512" height="512">
	<title>light-bulb</title>
	<style>
		.s0 { fill: #231f20 } 
	</style>
	<path id="Path 0" fill-rule="evenodd" class="s0" d="m256.1 11c3 0 4.6 0.7 9.9 6v44l-2.8 3.1c-2.3 2.6-3.4 3.1-7.2 3.1-3.6 0-5.1-0.6-10-5.7l-0.2-44.3 3.2-3.1c2.4-2.4 4-3.1 7.1-3.1zm-187.8 184h43.7l3.1 2.7c2.6 2.4 3.1 3.5 3.1 7.3 0 3.8-0.5 4.9-6.2 10l-43.5 0.1-2.8-2.6c-1.5-1.4-3-3.7-3.3-5.3-0.3-1.5-0.3-3.7 0-5 0.3-1.2 1.8-3.3 3.3-4.7zm331.7 0l43.4-0.1 2.8 2.6c1.5 1.4 3 3.7 3.4 5.2 0.3 1.6 0.3 3.8 0 5-0.4 1.3-1.9 3.4-6.2 7.4l-43.5-0.1-3.1-2.8c-2.6-2.2-3.1-3.5-3.1-7.1 0-3.8 0.4-4.9 3.1-7.3zm-113.9 285.5l3 3.3c1.8 2 2.9 4.3 2.9 6.2 0 1.7-0.5 4-1.2 5.3-0.6 1.2-2.1 3-3.2 3.9-1.9 1.6-5.3 1.8-61.6 1.8l-3-3.5c-2-2.3-3-4.6-3.1-6.7 0-1.8 0.9-4.6 2.1-6.1 1.1-1.6 3.1-3.2 4.3-3.7 1.2-0.5 15.2-0.8 59.8-0.5zm-159.4-415.4c2.9-0.1 5.1 1.7 17.9 14.2 8 7.8 15.2 15.6 16.1 17.2 0.9 1.8 1.3 4.2 0.9 6-0.3 1.7-1.7 4.1-3.2 5.5-2 1.9-3.6 2.5-7 2.5-4.4 0-4.6-0.1-19.9-15.5-14.1-14.1-15.5-15.8-15.5-19 0-1.9 0.8-4.6 1.6-5.9 0.9-1.3 2.5-3 3.7-3.7 1.2-0.7 3.6-1.3 5.4-1.3zm259.1-0.1c3.3 0 4.8 0.6 7.2 3 2.4 2.4 3 3.9 3 7.3-0.1 4.1-0.5 4.6-14.8 19-8.1 8.1-15.8 15.2-17.2 15.8-1.4 0.6-3.6 0.9-5 0.6-1.4-0.3-3.8-1.5-5.3-2.6-1.6-1.2-3-3.4-3.3-5.3-0.4-2.1-0.1-4.4 0.9-6.3 0.8-1.6 8-9.4 15.9-17.2 13.9-13.8 14.6-14.3 18.6-14.3zm-126.3 38.5c8.8 0.2 17.7 1.1 21.5 2 3.6 0.9 9.4 2.5 13 3.7 3.6 1.1 10.1 3.9 14.5 6 4.4 2.2 10.7 5.8 14 8 3.3 2.3 9.3 7.1 13.4 10.7 4.1 3.6 9.7 9.5 12.6 13.1 2.8 3.6 6.7 9 8.6 12 2 3 5.1 9.1 7.1 13.5 1.9 4.4 4 9.4 4.6 11 0.6 1.7 2.1 6.8 3.2 11.5 1.4 5.6 2.3 13.4 2.7 22.5 0.4 10.5 0.1 16.4-1.1 23.5-0.9 5.2-2.8 13.1-4.2 17.5-1.4 4.4-4.9 12.5-7.8 18-2.9 5.5-9 15.2-13.7 21.5-4.7 6.3-10.6 14.9-13.2 19-2.5 4.1-7.1 12.7-10 19-3 6.3-6.9 15.8-8.6 21-1.7 5.2-3.6 11.8-4.2 14.5-0.6 2.8-1.5 7.5-2.1 10.5-0.5 3-1.3 12.7-1.7 21.5-0.6 13.5-1 16.5-2.7 18.8-1.2 1.8-3.4 3.2-5.9 3.9-2.5 0.6-20.2 0.8-46 0.6-35.3-0.2-42.4-0.5-44.2-1.8-1.3-0.8-2.8-2.6-3.4-4-0.6-1.4-1.5-9.7-2-18.5-0.5-8.8-1.3-18.5-1.8-21.5-0.5-3-1.5-7.7-2.1-10.5-0.6-2.7-2.1-8.1-3.2-12-1.2-3.8-3.7-10.8-5.6-15.5-1.9-4.7-6.1-13.2-9.3-19-3.3-5.8-10.7-16.8-16.5-24.5-6.9-9.2-12.4-17.8-15.9-25-3-6-6.5-14.8-7.9-19.5-1.3-4.7-2.9-12-3.5-16.2-0.6-4.3-1.1-12.2-1.1-17.5 0-5.4 0.7-13.8 1.6-18.8 0.8-4.9 2.6-12.2 4-16.2 1.3-4 3.8-10.3 5.4-14 1.7-3.7 6-11.1 9.5-16.3 3.8-5.6 10.1-13.1 15.7-18.5 5.1-5 12.9-11.5 17.3-14.5 4.4-2.9 11.6-7 16-9.1 4.4-2 11.4-4.7 15.5-5.9 4.1-1.2 10.9-2.8 15-3.6 4.9-0.9 12.6-1.2 22.5-0.9zm-41 28c-4.4 2-10.4 5-13.4 6.8-2.9 1.8-8.3 5.7-12 8.8-3.6 3-9.5 9.1-13.1 13.6-3.6 4.4-8.4 11.6-10.7 15.9-2.2 4.4-5 10.6-6.1 13.9-1.1 3.3-2.8 9.5-3.6 13.8-0.9 4.2-1.6 12.1-1.6 17.5 0 5.3 0.7 13.5 1.6 18.2 0.8 4.7 2.8 11.9 4.3 16 1.5 4.1 4.6 10.7 6.8 14.5 2.2 3.9 7.2 11.1 11 16 3.8 5 9.6 13.1 12.8 18 3.3 5 8.5 14.4 11.6 21 3.2 6.6 7.1 16.3 8.9 21.5 1.7 5.2 3.9 13.1 5 17.5 1 4.4 2.6 13.3 3.4 19.8 0.9 6.4 1.6 14 1.6 16.7v5h61.5c1.9-20.5 3.4-31 4.6-36.5 1.2-5.5 3.9-15.2 6.1-21.5 2.2-6.3 6.2-16.2 8.9-22 2.8-5.8 7.3-14.3 10.2-18.9 2.8-4.6 9.4-14.1 14.5-21 5.1-6.9 11-16.2 13.2-20.6 2.1-4.4 5.1-12 6.5-17 2.1-7 2.8-12 3.2-22.5 0.4-10.5 0.2-15.4-1.2-22-0.9-4.7-2.8-11.6-4.1-15.5-1.4-3.8-4.1-9.9-6.1-13.5-1.9-3.6-5.2-8.7-7.3-11.5-2.2-2.7-6.9-8-10.7-11.7-3.7-3.8-9.5-8.6-12.8-10.9-3.3-2.2-9.2-5.6-13-7.4-3.9-1.9-11.1-4.6-16-6-7.6-2.3-11.4-2.8-24-3.1-12.4-0.3-16.5 0-23.5 1.7-4.7 1.1-12.1 3.5-16.5 5.4zm-7.4 309.5h89.9l3 2.5c1.7 1.5 3.2 3.9 3.6 5.8 0.4 2 0 4.4-1 6.5-1 1.9-3 3.8-5.1 4.7-2.9 1.3-10.4 1.5-45.5 1.5-35.1 0-42.6-0.2-45.5-1.5-2.1-0.9-4.2-2.8-5.1-4.7-1-2.1-1.4-4.5-1-6.5 0.3-2 1.8-4.3 3.7-5.8z"/>
</svg>