<svg version="1.2" xmlns="http://www.w3.org/2000/svg" viewBox="0 0 512 512" width="512" height="512">
	<title>light-bulb-check-svg</title>
	<style>
		.s0 { fill: #231f20 } 
	</style>
	<path id="Path 0" fill-rule="evenodd" class="s0" d="m252 102.1c1.9 0 8.9 0.6 15.5 1.4 6.6 0.9 16.1 2.7 21 4 4.9 1.4 13.9 5 20 8 6.1 3 13.5 7.4 16.7 9.7 3.1 2.4 8.5 6.8 12 9.9 3.4 3 9.5 9.8 13.4 15 3.9 5.2 9 13.1 11.3 17.7 2.2 4.5 5.4 12.1 7.1 17 1.6 4.8 3.9 14.6 5.1 21.7 1.9 11.7 2 14 1 23.5-0.7 5.8-2.1 14.6-3.3 19.5-1.1 4.9-3.6 12.6-5.4 17-1.8 4.4-5.5 11.6-8.2 16-2.6 4.4-9 13.9-14.1 21-6.4 8.9-11.8 18.1-17.1 29-4.3 8.8-9.2 20.3-11 25.5-1.7 5.2-3.9 14-5 19.5-1.1 5.5-2.4 17-2.9 25.5-0.4 8.5-1.3 16.5-2 17.8-0.6 1.2-2.3 3-3.8 4-2.5 1.5-6.5 1.7-91.5 1.7l-2.7-3c-2.5-2.7-2.8-4-3.5-12.5-0.4-5.2-1.2-14.7-1.7-21-0.6-6.3-2.4-16.7-4-23-1.6-6.3-4.1-14.6-5.5-18.5-1.5-3.9-5.1-11.7-8-17.5-2.9-5.8-8.8-15.4-13-21.5-4.3-6.1-10.2-14.6-13.3-19-3-4.4-7.4-11.8-9.7-16.5-2.3-4.7-5.3-11.9-6.7-16-1.4-4.1-3.6-13.8-7-35.5l2.2-14.5c1.4-8.9 3.7-18.4 5.8-24.5 1.9-5.5 4.4-11.8 5.6-14 1.1-2.2 3.9-6.9 6.2-10.5 2.3-3.6 7.3-10.1 11.1-14.4 3.8-4.4 10.7-11.1 15.4-14.9 4.7-3.8 11.7-8.8 15.5-11 3.8-2.2 10.6-5.5 15-7.3 4.4-1.7 11.4-3.9 15.5-4.8 4.1-0.9 10.4-2.3 14-3 3.6-0.7 8.1-1.4 10-1.5zm-23.5 26c-3.8 1.1-9.9 3.4-13.5 5.1-3.6 1.6-9.6 5-13.5 7.6-3.8 2.6-9.9 7.6-13.4 11.2-3.6 3.6-8.5 9.2-10.9 12.5-2.4 3.3-6.4 9.9-8.8 14.8-2.4 4.8-5.6 13.1-7.1 18.5-2.4 8.6-2.7 11.3-2.7 24.7 0.1 12.7 0.5 16.5 2.6 24.5 1.4 5.2 4.6 13.6 7.2 18.5 2.5 4.9 7.7 13.3 11.6 18.5 3.8 5.2 9.7 13.6 13.1 18.5 3.3 4.9 8.7 14.4 12 21 3.2 6.6 7.8 18.1 10.3 25.5 2.4 7.4 5.4 19.1 6.5 26 1.2 6.9 2.5 16.7 2.9 21.8l0.7 9.2h61c2.7-24.5 4.8-36.8 6.5-43.5 1.7-6.6 5.1-17.2 7.6-23.5 2.5-6.3 6.9-15.8 9.6-21 2.8-5.2 7.9-13.7 11.4-18.7 3.5-5.1 9.4-13.7 13.1-19 3.7-5.4 8.4-13.4 10.5-17.8 2-4.4 4.7-11.6 5.9-16 1.7-6.5 2.2-11 2.3-24 0.1-14.5-0.1-16.9-2.6-25.5-1.4-5.2-3.9-12.4-5.5-16-1.6-3.6-4.9-9.4-7.3-13-2.3-3.6-8.6-10.8-14-16-5.6-5.6-12.6-11.3-16.8-13.7-4-2.4-10.5-5.6-14.4-7.2-4-1.6-10.2-3.6-13.8-4.4-3.6-0.9-12.6-1.8-20-2.1-7.4-0.3-15.7-0.1-18.5 0.4-2.7 0.5-8.2 1.9-12 3.1zm33 352.1c23.8-0.2 24-0.2 26.1 2 1.2 1.3 2.7 3.3 3.3 4.6 0.6 1.2 1.1 3.3 1.1 4.7 0 1.4-1.4 4.1-6 9.5h-59.5l-3-3c-2.4-2.5-3-4-3-7.5 0-3.2 0.6-5 2.4-6.9 2-2 3.6-2.6 8.5-2.9 3.4-0.2 16.9-0.4 30.1-0.5zm-50.7-39.2h90.7l2.7 2.7c1.5 1.6 3 4.2 3.3 5.8 0.4 1.8 0.2 4.1-0.7 5.8-0.7 1.6-2.4 3.6-3.8 4.5-2.2 1.5-7.2 1.7-46 1.7-36.5 0-44-0.2-46.8-1.5-2.1-0.9-3.9-2.8-4.9-5-0.9-2.2-1.2-4.5-0.8-6 0.4-1.4 2-3.7 3.5-5.2zm45.2-283.9c3-0.1 8.2 0.3 11.5 0.9 3.3 0.6 8.9 2.3 12.5 3.7 3.6 1.4 9.1 4.1 12.2 5.9 3.2 1.9 8.1 5.7 11 8.6 2.8 2.9 6.9 8 9.1 11.3 2.3 3.3 5.2 8.7 6.5 12 1.3 3.3 3 9.2 3.8 13.2 0.8 4 1.4 10.1 1.4 13.5 0 3.4-0.7 9.4-1.5 13.3-0.8 3.8-3 10.1-4.9 14-1.8 3.8-5.3 9.7-7.8 13-2.4 3.3-6.4 7.6-8.9 9.5-2.4 2-7.1 5.3-10.4 7.3-3.3 2-9.4 4.8-13.5 6.3-6.7 2.4-9 2.7-20.5 2.7-11.7 0.1-13.8-0.2-21-2.7-4.4-1.5-10.3-4.1-13-5.6-2.8-1.6-7.5-4.8-10.5-7.3-3.3-2.6-7.8-7.8-11.1-12.8-3.1-4.7-6.9-11.6-8.4-15.4-1.5-3.9-3.2-10.4-3.8-14.5-0.8-5.5-0.8-9.9 0-16 0.6-4.7 2.1-11.5 3.3-15 1.2-3.6 4.1-9.7 6.5-13.5 2.4-3.9 7.4-10 11.2-13.6 3.7-3.6 9.7-8.2 13.3-10.2 3.6-1.9 9-4.3 12-5.3 3-1 7.7-2.1 10.5-2.5 2.7-0.4 7.5-0.8 10.5-0.8zm-24 19.7c-3.6 1.6-9 5.4-12.1 8.3-3 3-7.2 7.8-9.2 10.9-2 3-4.6 8.4-5.8 12-1.7 4.9-2.3 8.8-2.3 16.5-0.1 7.8 0.4 11.4 2.1 16.5 1.3 3.5 3.7 8.7 5.4 11.5 1.8 2.7 5.9 7.6 9.3 10.8 3.3 3.2 8.8 7.1 12.1 8.7 3.3 1.7 9.4 3.7 13.5 4.6 5.1 1.1 9.7 1.4 14.5 1 3.8-0.3 9.5-1.4 12.5-2.5 3-1 6.8-2.5 8.5-3.4 1.6-0.8 5.7-3.7 9-6.4 3.3-2.8 7.7-7.4 9.8-10.4 2-3 4.8-8.5 6.2-12.2 1.4-3.7 2.8-10 3.1-14 0.5-5.1 0.2-9.5-1-14.7-0.9-4.2-3.1-10.5-4.8-14-2.1-4.1-5.8-8.9-9.8-12.9-3.6-3.5-8.3-7.5-10.5-8.7-2.2-1.3-6.7-3.3-10-4.4-3.3-1.2-9.6-2.3-14-2.6-4.8-0.2-10.4 0.1-14 0.9-3.3 0.8-8.9 2.8-12.5 4.5zm2.5 22.1l21.5 21.6 10.2-10.4c9.6-9.6 10.4-10.2 12-8.7 1 0.8 1.8 1.9 1.8 2.3 0 0.4-4.5 5.3-20 20.8l10.7 10.6c9.7 9.7 10.6 10.9 9.3 12.3-0.8 0.9-2 1.6-2.5 1.6-0.6 0-5.6-4.7-21.5-20.5l-22 22-4-4 22-22-21.5-21.5z"/>
</svg>